<svg width="24" height="24" viewBox="0 0 24 24" fill="none" xmlns="http://www.w3.org/2000/svg">
<path fill-rule="evenodd" clip-rule="evenodd" d="M19.95 2.5C22.0487 2.5 23.75 4.20132 23.75 6.3V17.7C23.75 19.7987 22.0487 21.5 19.95 21.5H3.8C1.70132 21.5 3.06032e-08 19.7987 0 17.7V6.3C0 4.20132 1.70132 2.5 3.8 2.5H19.95ZM5.7 14.85C5.17533 14.85 4.75 15.2753 4.75 15.8V17.7C4.75 18.2247 5.17533 18.65 5.7 18.65H18.05C18.5747 18.65 19 18.2247 19 17.7V15.8C19 15.2753 18.5747 14.85 18.05 14.85H5.7ZM3.8 10.1C3.27533 10.1 2.85 10.5253 2.85 11.05V12.95C2.85 13.4747 3.27533 13.9 3.8 13.9H5.7C6.22467 13.9 6.65 13.4747 6.65 12.95V11.05C6.65 10.5253 6.22467 10.1 5.7 10.1H3.8ZM8.55 10.1C8.02533 10.1 7.6 10.5253 7.6 11.05V12.95C7.6 13.4747 8.02533 13.9 8.55 13.9H10.45C10.9747 13.9 11.4 13.4747 11.4 12.95V11.05C11.4 10.5253 10.9747 10.1 10.45 10.1H8.55ZM13.3 10.1C12.7753 10.1 12.35 10.5253 12.35 11.05V12.95C12.35 13.4747 12.7753 13.9 13.3 13.9H15.2C15.7247 13.9 16.15 13.4747 16.15 12.95V11.05C16.15 10.5253 15.7247 10.1 15.2 10.1H13.3ZM18.05 10.1C17.5253 10.1 17.1 10.5253 17.1 11.05V12.95C17.1 13.4747 17.5253 13.9 18.05 13.9H19.95C20.4747 13.9 20.9 13.4747 20.9 12.95V11.05C20.9 10.5253 20.4747 10.1 19.95 10.1H18.05ZM3.8 5.35C3.27533 5.35 2.85 5.77533 2.85 6.3V8.2C2.85 8.72467 3.27533 9.15 3.8 9.15H5.7C6.22467 9.15 6.65 8.72467 6.65 8.2V6.3C6.65 5.77533 6.22467 5.35 5.7 5.35H3.8ZM8.55 5.35C8.02533 5.35 7.6 5.77533 7.6 6.3V8.2C7.6 8.72467 8.02533 9.15 8.55 9.15H10.45C10.9747 9.15 11.4 8.72467 11.4 8.2V6.3C11.4 5.77533 10.9747 5.35 10.45 5.35H8.55ZM13.3 5.35C12.7753 5.35 12.35 5.77533 12.35 6.3V8.2C12.35 8.72467 12.7753 9.15 13.3 9.15H15.2C15.7247 9.15 16.15 8.72467 16.15 8.2V6.3C16.15 5.77533 15.7247 5.35 15.2 5.35H13.3ZM18.05 5.35C17.5253 5.35 17.1 5.77533 17.1 6.3V8.2C17.1 8.72467 17.5253 9.15 18.05 9.15H19.95C20.4747 9.15 20.9 8.72467 20.9 8.2V6.3C20.9 5.77533 20.4747 5.35 19.95 5.35H18.05Z" fill="#D9D9D9"/>
</svg>
